<svg xmlns="http://www.w3.org/2000/svg" xmlns:xlink="http://www.w3.org/1999/xlink" width="500" zoomAndPan="magnify" viewBox="0 0 375 374.999991" height="500" preserveAspectRatio="xMidYMid meet" version="1.0"><defs><g/><clipPath id="6a31152de2"><rect x="0" width="138" y="0" height="138"/></clipPath><clipPath id="aeb7c37067"><path d="M 157.890625 165.199219 L 203.046875 165.199219 L 203.046875 255.589844 L 157.890625 255.589844 Z M 157.890625 165.199219 " clip-rule="nonzero"/></clipPath><clipPath id="0a4a24804c"><path d="M 0.890625 0.199219 L 46.046875 0.199219 L 46.046875 90.589844 L 0.890625 90.589844 Z M 0.890625 0.199219 " clip-rule="nonzero"/></clipPath><clipPath id="02d31defdd"><rect x="0" width="47" y="0" height="91"/></clipPath><clipPath id="297c145e6f"><path d="M 4 0.238281 L 92 0.238281 L 92 110 L 4 110 Z M 4 0.238281 " clip-rule="nonzero"/></clipPath><clipPath id="eb6aa5b2dc"><rect x="0" width="118" y="0" height="138"/></clipPath><clipPath id="a4e8a75bd5"><rect x="0" width="184" y="0" height="28"/></clipPath></defs><rect x="-37.5" width="450" fill="#ffffff" y="-37.499999" height="449.999989" fill-opacity="1"/><rect x="-37.5" width="450" fill="#fbf7f7" y="-37.499999" height="449.999989" fill-opacity="1"/><g transform="matrix(1, 0, 0, 1, 167, 96)"><g clip-path="url(#6a31152de2)"><g fill="#000000" fill-opacity="1"><g transform="translate(0.0708871, 109.899544)"><g><path d="M 3.21875 -107.1875 L 20.46875 -107.1875 L 61.640625 -20.796875 L 93.796875 -107.1875 L 112.65625 -107.1875 L 112.65625 -106.109375 C 109.582031 -106.109375 107.347656 -105.179688 105.953125 -103.328125 C 104.554688 -101.472656 103.679688 -98.453125 103.328125 -94.265625 C 102.972656 -90.085938 102.796875 -84.460938 102.796875 -77.390625 L 102.796875 -29.796875 C 102.796875 -22.796875 102.972656 -17.1875 103.328125 -12.96875 C 103.679688 -8.75 104.554688 -5.710938 105.953125 -3.859375 C 107.347656 -2.003906 109.582031 -1.078125 112.65625 -1.078125 L 112.65625 0 L 83.71875 0 L 83.71875 -1.078125 C 86.789062 -1.078125 89.019531 -2.003906 90.40625 -3.859375 C 91.800781 -5.710938 92.675781 -8.75 93.03125 -12.96875 C 93.394531 -17.1875 93.578125 -22.796875 93.578125 -29.796875 L 93.578125 -103.65625 C 89.710938 -93.363281 85.882812 -83.109375 82.09375 -72.890625 C 78.3125 -62.671875 74.457031 -52.21875 70.53125 -41.53125 C 66.601562 -30.851562 62.421875 -19.617188 57.984375 -7.828125 L 57.03125 -7.828125 C 53.664062 -15.046875 50.535156 -21.742188 47.640625 -27.921875 C 44.742188 -34.097656 41.992188 -40.007812 39.390625 -45.65625 C 36.785156 -51.300781 34.160156 -56.925781 31.515625 -62.53125 C 28.867188 -68.144531 26.148438 -73.972656 23.359375 -80.015625 C 20.578125 -86.054688 17.539062 -92.578125 14.25 -99.578125 L 14.15625 -53.59375 L 14.15625 -39.984375 C 14.15625 -32.191406 14.65625 -25.757812 15.65625 -20.6875 C 16.65625 -15.613281 18.007812 -11.644531 19.71875 -8.78125 C 21.4375 -5.925781 23.363281 -3.925781 25.5 -2.78125 C 27.644531 -1.644531 29.863281 -1.078125 32.15625 -1.078125 L 32.15625 0 L 3.21875 0 L 3.21875 -1.078125 C 6.289062 -1.078125 8.519531 -2.003906 9.90625 -3.859375 C 11.300781 -5.710938 12.175781 -8.75 12.53125 -12.96875 C 12.894531 -17.1875 13.078125 -22.796875 13.078125 -29.796875 L 13.078125 -77.390625 C 13.078125 -84.460938 12.894531 -90.085938 12.53125 -94.265625 C 12.175781 -98.453125 11.300781 -101.472656 9.90625 -103.328125 C 8.519531 -105.179688 6.289062 -106.109375 3.21875 -106.109375 Z M 3.21875 -107.1875 "/></g></g></g></g></g><g clip-path="url(#aeb7c37067)"><g transform="matrix(1, 0, 0, 1, 157, 165)"><g clip-path="url(#02d31defdd)"><g clip-path="url(#0a4a24804c)"><path fill="#fbf7f7" d="M 0.890625 0.199219 L 46.046875 0.199219 L 46.046875 90.511719 L 0.890625 90.511719 Z M 0.890625 0.199219 " fill-opacity="1" fill-rule="nonzero"/></g></g></g></g><g transform="matrix(1, 0, 0, 1, 90, 96)"><g clip-path="url(#eb6aa5b2dc)"><g clip-path="url(#297c145e6f)"><g fill="#000000" fill-opacity="1"><g transform="translate(1.395343, 109.899544)"><g><path d="M 3.21875 0 L 3.21875 -1.078125 C 6.289062 -1.078125 8.519531 -2.003906 9.90625 -3.859375 C 11.300781 -5.710938 12.175781 -8.75 12.53125 -12.96875 C 12.894531 -17.1875 13.078125 -22.796875 13.078125 -29.796875 L 13.078125 -77.390625 C 13.078125 -84.460938 12.894531 -90.085938 12.53125 -94.265625 C 12.175781 -98.453125 11.300781 -101.472656 9.90625 -103.328125 C 8.519531 -105.179688 6.289062 -106.109375 3.21875 -106.109375 L 3.21875 -107.1875 L 16.078125 -107.1875 C 20.003906 -107.1875 23.59375 -107.363281 26.84375 -107.71875 C 30.101562 -108.082031 33.394531 -108.441406 36.71875 -108.796875 C 40.039062 -109.148438 43.769531 -109.328125 47.90625 -109.328125 C 55.550781 -109.328125 62.019531 -108.019531 67.3125 -105.40625 C 72.601562 -102.800781 76.625 -99.25 79.375 -94.75 C 82.125 -90.25 83.5 -85.070312 83.5 -79.21875 C 83.5 -74.351562 82.226562 -69.773438 79.6875 -65.484375 C 77.15625 -61.203125 73.601562 -57.753906 69.03125 -55.140625 C 64.457031 -52.535156 59.0625 -51.234375 52.84375 -51.234375 C 50.34375 -51.234375 48.019531 -51.570312 45.875 -52.25 C 43.726562 -52.925781 41.78125 -53.726562 40.03125 -54.65625 C 38.28125 -55.59375 36.691406 -56.398438 35.265625 -57.078125 C 33.835938 -57.753906 32.550781 -58.09375 31.40625 -58.09375 C 30.757812 -58.09375 30.078125 -57.929688 29.359375 -57.609375 C 28.648438 -57.285156 28.296875 -56.519531 28.296875 -55.3125 C 28.296875 -53.945312 29.082031 -52.726562 30.65625 -51.65625 C 32.226562 -50.59375 34.265625 -49.523438 36.765625 -48.453125 C 39.265625 -47.378906 41.941406 -46.195312 44.796875 -44.90625 C 47.660156 -43.625 50.414062 -42.050781 53.0625 -40.1875 C 55.707031 -38.332031 57.882812 -36.046875 59.59375 -33.328125 C 61.738281 -30.046875 63.953125 -26.53125 66.234375 -22.78125 C 68.523438 -19.03125 70.9375 -15.507812 73.46875 -12.21875 C 76.007812 -8.925781 78.671875 -6.242188 81.453125 -4.171875 C 84.242188 -2.109375 87.175781 -1.078125 90.25 -1.078125 L 90.25 0 L 73.859375 0 C 72.640625 0 71.441406 -0.5 70.265625 -1.5 C 69.085938 -2.5 67.640625 -4.195312 65.921875 -6.59375 C 64.203125 -8.988281 62.003906 -12.253906 59.328125 -16.390625 C 56.648438 -20.535156 53.203125 -25.789062 48.984375 -32.15625 C 46.410156 -36.082031 43.835938 -39.1875 41.265625 -41.46875 C 38.691406 -43.757812 36.347656 -45.601562 34.234375 -47 C 32.128906 -48.394531 30.429688 -49.71875 29.140625 -50.96875 C 27.859375 -52.21875 27.21875 -53.734375 27.21875 -55.515625 C 27.21875 -56.804688 27.609375 -57.738281 28.390625 -58.3125 C 29.179688 -58.882812 30.046875 -59.171875 30.984375 -59.171875 C 32.546875 -59.171875 34.078125 -58.863281 35.578125 -58.25 C 37.085938 -57.644531 38.644531 -56.929688 40.25 -56.109375 C 41.851562 -55.285156 43.617188 -54.570312 45.546875 -53.96875 C 47.484375 -53.363281 49.703125 -53.0625 52.203125 -53.0625 C 55.554688 -53.0625 58.59375 -53.8125 61.3125 -55.3125 C 64.03125 -56.8125 66.351562 -58.789062 68.28125 -61.25 C 70.207031 -63.71875 71.6875 -66.503906 72.71875 -69.609375 C 73.757812 -72.722656 74.28125 -75.890625 74.28125 -79.109375 C 74.28125 -85.035156 72.957031 -90.140625 70.3125 -94.421875 C 67.664062 -98.710938 63.910156 -102.019531 59.046875 -104.34375 C 54.191406 -106.664062 48.441406 -107.828125 41.796875 -107.828125 C 37.867188 -107.828125 34.441406 -107.554688 31.515625 -107.015625 C 28.585938 -106.484375 25.476562 -105.613281 22.1875 -104.40625 L 22.1875 -29.796875 C 22.1875 -22.796875 22.363281 -17.1875 22.71875 -12.96875 C 23.082031 -8.75 23.957031 -5.710938 25.34375 -3.859375 C 26.738281 -2.003906 28.972656 -1.078125 32.046875 -1.078125 L 32.046875 0 Z M 3.21875 0 "/></g></g></g></g></g></g><g transform="matrix(1, 0, 0, 1, 104, 248)"><g clip-path="url(#a4e8a75bd5)"><g fill="#000000" fill-opacity="1"><g transform="translate(1.640321, 20.787709)"><g><path d="M 8.328125 0 L 5.21875 -5.34375 L 3.15625 -5.34375 L 3.15625 0 L 1.4375 0 L 1.4375 -13.0625 L 5.65625 -13.0625 C 6.644531 -13.0625 7.476562 -12.894531 8.15625 -12.5625 C 8.84375 -12.226562 9.351562 -11.769531 9.6875 -11.1875 C 10.03125 -10.613281 10.203125 -9.957031 10.203125 -9.21875 C 10.203125 -8.320312 9.941406 -7.53125 9.421875 -6.84375 C 8.898438 -6.15625 8.125 -5.695312 7.09375 -5.46875 L 10.375 0 Z M 3.15625 -6.71875 L 5.65625 -6.71875 C 6.582031 -6.71875 7.273438 -6.941406 7.734375 -7.390625 C 8.203125 -7.847656 8.4375 -8.457031 8.4375 -9.21875 C 8.4375 -10 8.207031 -10.597656 7.75 -11.015625 C 7.289062 -11.441406 6.59375 -11.65625 5.65625 -11.65625 L 3.15625 -11.65625 Z M 3.15625 -6.71875 "/></g></g></g><g fill="#000000" fill-opacity="1"><g transform="translate(19.604583, 20.787709)"><g><path d="M 9.171875 -2.90625 L 3.46875 -2.90625 L 2.421875 0 L 0.625 0 L 5.34375 -13 L 7.3125 -13 L 12.015625 0 L 10.21875 0 Z M 8.6875 -4.296875 L 6.3125 -10.890625 L 3.953125 -4.296875 Z M 8.6875 -4.296875 "/></g></g></g><g fill="#000000" fill-opacity="1"><g transform="translate(38.806201, 20.787709)"><g><path d="M 3.109375 -13.0625 L 3.109375 -4.796875 C 3.109375 -3.640625 3.390625 -2.78125 3.953125 -2.21875 C 4.523438 -1.65625 5.320312 -1.375 6.34375 -1.375 C 7.34375 -1.375 8.125 -1.65625 8.6875 -2.21875 C 9.257812 -2.78125 9.546875 -3.640625 9.546875 -4.796875 L 9.546875 -13.0625 L 11.25 -13.0625 L 11.25 -4.8125 C 11.25 -3.726562 11.03125 -2.8125 10.59375 -2.0625 C 10.15625 -1.320312 9.5625 -0.769531 8.8125 -0.40625 C 8.070312 -0.0507812 7.238281 0.125 6.3125 0.125 C 5.394531 0.125 4.5625 -0.0507812 3.8125 -0.40625 C 3.070312 -0.769531 2.484375 -1.320312 2.046875 -2.0625 C 1.617188 -2.8125 1.40625 -3.726562 1.40625 -4.8125 L 1.40625 -13.0625 Z M 3.109375 -13.0625 "/></g></g></g><g fill="#000000" fill-opacity="1"><g transform="translate(58.026572, 20.787709)"><g><path d="M 3.15625 -1.390625 L 7.71875 -1.390625 L 7.71875 0 L 1.4375 0 L 1.4375 -13.0625 L 3.15625 -13.0625 Z M 3.15625 -1.390625 "/></g></g></g><g fill="#000000" fill-opacity="1"><g transform="translate(72.691212, 20.787709)"><g/></g></g><g fill="#000000" fill-opacity="1"><g transform="translate(84.262438, 20.787709)"><g><path d="M 14.703125 -12.96875 L 14.703125 0 L 13 0 L 13 -9.671875 L 8.6875 0 L 7.484375 0 L 3.15625 -9.6875 L 3.15625 0 L 1.4375 0 L 1.4375 -12.96875 L 3.28125 -12.96875 L 8.078125 -2.25 L 12.875 -12.96875 Z M 14.703125 -12.96875 "/></g></g></g><g fill="#000000" fill-opacity="1"><g transform="translate(106.969916, 20.787709)"><g><path d="M 3.15625 -13.0625 L 3.15625 0 L 1.4375 0 L 1.4375 -13.0625 Z M 3.15625 -13.0625 "/></g></g></g><g fill="#000000" fill-opacity="1"><g transform="translate(118.147433, 20.787709)"><g><path d="M 11.515625 -13.0625 L 11.515625 0 L 9.8125 0 L 9.8125 -5.921875 L 3.15625 -5.921875 L 3.15625 0 L 1.4375 0 L 1.4375 -13.0625 L 3.15625 -13.0625 L 3.15625 -7.328125 L 9.8125 -7.328125 L 9.8125 -13.0625 Z M 11.515625 -13.0625 "/></g></g></g><g fill="#000000" fill-opacity="1"><g transform="translate(137.686516, 20.787709)"><g><path d="M 9.171875 -2.90625 L 3.46875 -2.90625 L 2.421875 0 L 0.625 0 L 5.34375 -13 L 7.3125 -13 L 12.015625 0 L 10.21875 0 Z M 8.6875 -4.296875 L 6.3125 -10.890625 L 3.953125 -4.296875 Z M 8.6875 -4.296875 "/></g></g></g><g fill="#000000" fill-opacity="1"><g transform="translate(156.888134, 20.787709)"><g><path d="M 3.15625 -1.390625 L 7.71875 -1.390625 L 7.71875 0 L 1.4375 0 L 1.4375 -13.0625 L 3.15625 -13.0625 Z M 3.15625 -1.390625 "/></g></g></g><g fill="#000000" fill-opacity="1"><g transform="translate(171.552774, 20.787709)"><g><path d="M 3.15625 -13.0625 L 3.15625 0 L 1.4375 0 L 1.4375 -13.0625 Z M 3.15625 -13.0625 "/></g></g></g></g></g></svg>